<svg viewBox="0 0 60 60" xmlns="http://www.w3.org/2000/svg">
    <path d="m0 0h60v60h-60z" fill="none"/>
    <path d="m10 30v5l6 10 9 5h10l9-5 6-10v-5-5l-6-10-9-5h-10l-9 5-6 10z" fill="#81b2ff" stroke="#0064ff" stroke-miterlimit="10" stroke-width="4"/>
    <g fill="#ffffff">
        <path d="m22.75 37h6v-8h-5v-3h9v11h4v4h-14z"/>
        <path d="m33.75 21a2.9 2.9 0 0 1 -.24 1.18 2.77 2.77 0 0 1 -.65.95 3 3 0 0 1 -3.28.63 3 3 0 0 1 -.95-.63 2.75 2.75 0 0 1 -.64-.95 3 3 0 0 1 0-2.36 2.75 2.75 0 0 1 .64-.95 3.42 3.42 0 0 1 .95-.63 2.92 2.92 0 0 1 2.32 0 3.2 3.2 0 0 1 1 .63 2.77 2.77 0 0 1 .65.95 2.9 2.9 0 0 1 .2 1.18z"/>
    </g>
</svg>
