<svg xmlns="http://www.w3.org/2000/svg" xmlns:xlink="http://www.w3.org/1999/xlink" viewBox="0 0 60 60"><defs><style>.cls-1,.cls-5,.cls-9{fill:none;}.cls-2{fill:#e6e6e6;}.cls-3{fill:#f2f2f2;}.cls-4{fill:#ccc;}.cls-5{stroke:#231f20;}.cls-5,.cls-6,.cls-7,.cls-9{stroke-miterlimit:10;stroke-width:4px;}.cls-6{fill:#595959;}.cls-6,.cls-9{stroke:gray;}.cls-7{fill:#eee;stroke:#595959;}.cls-8{clip-path:url(#clip-path);}</style><clipPath id="clip-path"><polygon class="cls-1" points="41 44 41 25 19 25 25 31 35 38 41 44"/></clipPath></defs><g id="Layer_2" data-name="Layer 2"><g id="Save"><polygon class="cls-2" points="39 14 14 14 14 48 46 48 46 21 39 14"/><polygon class="cls-3" points="23.08 14 46 36.92 46 21 39 14 23.08 14"/><polygon class="cls-4" points="28.82 48 14 33.18 14 48 28.82 48"/><polygon class="cls-5" points="39 14 14 14 14 48 46 48 46 21 39 14"/><rect class="cls-6" x="22" y="14" width="10" height="4"/><rect class="cls-7" x="22" y="28" width="16" height="13"/><g class="cls-8"><rect class="cls-9" x="22" y="28" width="16" height="13"/></g><rect class="cls-1" width="60" height="60"/></g></g></svg>