<svg viewBox="0 0 44.83 44.84" xmlns="http://www.w3.org/2000/svg">
    <path d="m42 22.83-8.01 7.99-4.99-4.99-10-10-5-5 8-8z" fill="#ee74a7"/>
    <path d="m33.99 30.82-12.03 12.01h-1.97l-.03-7.98h.02l9.02-9.02z" fill="#f7941d"/>
    <path d="m29 25.83-9.02 9.02h-.02v-.02h-9.96v-10l9-9z" fill="#fbb040"/>
    <path d="m19.96 34.85.03 7.98h-12.99l-5-5v-13h8v10h9.96z" fill="#fff3b5"/>
    <path d="m19 15.83-9 9h-8v-2l12-12z" fill="#ffc840"/>
    <g fill="none" stroke="#231f20" stroke-miterlimit="10" stroke-width="4">
        <path d="m14 10.83 8-8 20 20-8.01 7.99-12.03 12.01h-1.97-12.99-5v-5-13-2z"/>
        <path d="m14 10.83 5 5 10 10 4.99 4.99.01.01"/>
        <path d="m2 37.83 5 5"/>
        <path d="m20 44.83-.01-2-.03-7.98v-.02h-9.96v-10h-8-2"/>
        <path d="m19 15.83-9 9"/>
        <path d="m19.98 34.85 9.02-9.02"/>
    </g>
</svg>
