<svg viewBox="0 0 45.73 47.47" xmlns="http://www.w3.org/2000/svg">
    <path d="m36.7 24.48-.29 4.11 1.92 10.83-5.05 5.97-11.81 2.08-7.59-2.72-11.36-1.05-2.02-5.73 8.51-3.53 3.25-4.64-6.26-18.19 4.76-1.85 8.51 13.73 1.8-1.33-1.16-18.08 5.1.12 2.95 16.74 1.97-.35 2.55-8.57 5.1.12z" fill="#808080" opacity=".25"/>
    <path d="m40.28 25.39-1 4v11l-6 5h-12l-7-4-11-3-1-6 9-2 4-4-3-19 5-1 6 15 2-1 2-18 5 1v17h2l4-8 5 1z" fill="#e6e6e6"/>
    <path d="m7.28 35.39-5-3 1 6 11 3 7 4h12l6-5-6 1-12-1-6-3z" fill="#ccc"/>
    <path d="m43.28 13.39-3-1-3 11-2-1-3-19-3-1v18l-2 1h-4l-6-15-5 1 10 17 5-3 2-1 1 2h5l2 1v6h2z" fill="#f2f2f2"/>
    <g fill="none">
        <path d="m40.28 25.39-1 4v11l-6 5h-12l-7-4-11-3-1-6 9-2 4-4-3-19 5-1 6 15 2-1 2-18 5 1v17h2l4-8 5 1z" stroke="#231f20" stroke-width="4"/>
        <path d="m32.28 27.39-10 10" stroke="#808080" stroke-miterlimit="10" stroke-width="2"/>
        <path d="m22.28 27.39 5 5 5 5" stroke="#808080" stroke-miterlimit="10" stroke-width="2"/>
    </g>
</svg>
