<svg xmlns="http://www.w3.org/2000/svg" viewBox="0 0 60 60"><defs><style>.cls-1{fill:#ee74a7;}.cls-2{fill:#ffc840;}.cls-3{fill:#fbb040;}.cls-4{fill:#fff3b5;}.cls-5{fill:#f7941d;}.cls-6,.cls-7{fill:none;}.cls-6{stroke:#231f20;stroke-miterlimit:10;stroke-width:4px;}</style></defs><g id="Layer_2" data-name="Layer 2"><g id="Erase"><polygon class="cls-1" points="9.04 35 17.05 27.01 22.04 32 32.04 42 37.04 47 34.04 50 29.04 50 24.04 50 9.04 35"/><polygon class="cls-2" points="17.05 27.01 30.04 14 32.01 14 32.04 21.98 32.02 21.98 22.04 32 17.05 27.01"/><polygon class="cls-3" points="22.04 32 32.02 21.98 32.04 21.98 32.04 22 42 22 42 32 32.04 42 22.04 32"/><polygon class="cls-4" points="32.04 21.98 32.01 14 45 14 50 19 50 32 42 32 42 22 32.04 22 32.04 21.98"/><polygon class="cls-5" points="32.04 42 42 32 50 32 50 34 37.04 47 32.04 42"/><polygon class="cls-6" points="37.04 47 34.04 50 29.04 50 24.04 50 9.04 35 17.05 27.01 30.04 14 32.01 14 45 14 50 14 50 19 50 32 50 34 37.04 47"/><polyline class="cls-6" points="37.04 47 32.04 42 22.04 32 17.05 27.01 17.04 27"/><line class="cls-6" x1="50" y1="19" x2="45" y2="14"/><polyline class="cls-6" points="32 12 32.01 14 32.04 21.98 32.04 22 42 22 42 32 50 32 52 32"/><line class="cls-6" x1="32.04" y1="42" x2="42" y2="32"/><line class="cls-6" x1="32.02" y1="21.98" x2="22.04" y2="32"/><rect class="cls-7" width="60" height="60"/></g></g></svg>