<svg xmlns="http://www.w3.org/2000/svg" viewBox="0 0 60 60"><defs><style>.cls-1{fill:#ee74a7;}.cls-2{fill:#f7941d;}.cls-3{fill:#fbb040;}.cls-4{fill:#fff3b5;}.cls-5{fill:#ffc840;}.cls-6,.cls-7{fill:none;}.cls-6{stroke:#231f20;stroke-miterlimit:10;stroke-width:4px;}</style></defs><g id="Layer_2" data-name="Layer 2"><g id="Draw"><polygon class="cls-1" points="50 30 41.99 37.99 37 33 27 23 22 18 30 10 50 30"/><polygon class="cls-2" points="41.99 37.99 29.96 50 27.99 50 27.96 42.02 27.98 42.02 37 33 41.99 37.99"/><polygon class="cls-3" points="37 33 27.98 42.02 27.96 42.02 27.96 42 18 42 18 32 27 23 37 33"/><polygon class="cls-4" points="27.96 42.02 27.99 50 15 50 10 45 10 32 18 32 18 42 27.96 42 27.96 42.02"/><polygon class="cls-5" points="27 23 18 32 10 32 10 30 22 18 27 23"/><polygon class="cls-6" points="22 18 30 10 50 30 41.99 37.99 29.96 50 27.99 50 15 50 10 50 10 45 10 32 10 30 22 18"/><polyline class="cls-6" points="22 18 27 23 37 33 41.99 37.99 42 38"/><line class="cls-6" x1="10" y1="45" x2="15" y2="50"/><polyline class="cls-6" points="28 52 27.99 50 27.96 42.02 27.96 42 18 42 18 32 10 32 8 32"/><line class="cls-6" x1="27" y1="23" x2="18" y2="32"/><line class="cls-6" x1="27.98" y1="42.02" x2="37" y2="33"/><rect class="cls-7" width="60" height="60"/></g></g></svg>