<svg xmlns="http://www.w3.org/2000/svg" viewBox="0 0 60 60"><defs><style>.cls-1{fill:#fff;}.cls-2{fill:#e6e6e6;}.cls-3{fill:#ccc;}.cls-4{fill:#f2f2f2;}.cls-5,.cls-6,.cls-8{fill:none;}.cls-5,.cls-6,.cls-7{stroke:#231f20;stroke-width:4px;}.cls-5{stroke-miterlimit:10;}.cls-6{stroke-miterlimit:1;}.cls-7{fill:#231f20;}</style></defs><g id="Layer_2" data-name="Layer 2"><g id="Fill"><polygon class="cls-1" points="50 30 30 10 10 30 29.96 50 50 30"/><polygon class="cls-2" points="35 45 45 35 25.02 15.02 15.01 24.99 35 45"/><polygon class="cls-3" points="30 50 35 45 15.02 25.02 10.01 30 30 50"/><polygon class="cls-4" points="45.01 34.99 50.01 29.99 30.03 10.01 25.01 14.99 45.01 34.99"/><polygon class="cls-5" points="50 30 30 10 10 30 29.96 50 50 30"/><line class="cls-6" x1="25" y1="25" x2="46" y2="14"/><polygon class="cls-7" points="10 50 8 28 14 26 10 50"/><rect class="cls-8" width="60" height="60"/></g></g></svg>