<svg viewBox="0 0 45.79 40.01" xmlns="http://www.w3.org/2000/svg">
    <path d="m2.83 23.01 8.01-7.99 4.99 4.99 10 10 5 5-3 3h-5-5z" fill="#ee74a7"/>
    <path d="m10.84 15.02 12.99-13.01h1.97l.03 7.98h-.02l-9.98 10.02z" fill="#ffc840"/>
    <path d="m15.83 20.01 9.98-10.02h.02v.02h9.96v10l-9.96 10z" fill="#fbb040"/>
    <path d="m25.83 9.99-.03-7.98h12.99l5 5v13h-8v-10h-9.96z" fill="#fff3b5"/>
    <path d="m25.83 30.01 9.96-10h8v2l-12.96 13z" fill="#f7941d"/>
    <g fill="none" stroke="#231f20" stroke-miterlimit="10" stroke-width="4">
        <path d="m30.83 35.01-3 3h-5-5l-15-15 8.01-7.99 12.99-13.01h1.97 12.99 5v5 13 2z"/>
        <path d="m30.83 35.01-5-5-10-10-4.99-4.99-.01-.01"/>
        <path d="m43.79 7.01-5-5"/>
        <path d="m25.79.01.01 2 .03 7.98v.02h9.96v10h8 2"/>
        <path d="m25.83 30.01 9.96-10"/>
        <path d="m25.81 9.99-9.98 10.02"/>
    </g>
</svg>
