<svg xmlns="http://www.w3.org/2000/svg" viewBox="0 0 60 60">
  <defs>
    <style>
      .cls-7 {
        fill: none;
        stroke: #231f20;
        stroke-miterlimit: 10;
        stroke-width: 4px
      }
    </style>
  </defs>
  <g id="Layer_2" data-name="Layer 2">
    <g id="Draw">
      <path fill="#ee74a7" d="M50 30l-8.01 7.99L37 33 27 23l-5-5 8-8 20 20z" />
      <path fill="#f7941d" d="M41.99 37.99L29.96 50h-1.97l-.03-7.98h.02L37 33l4.99 4.99z" />
      <path fill="#fbb040" d="M37 33l-9.02 9.02h-.02V42H18V32l9-9 10 10z" />
      <path fill="#fff3b5" d="M27.96 42.02l.03 7.98H15l-5-5V32h8v10h9.96v.02z" />
      <path fill="#ffc840" d="M27 23l-9 9h-8v-2l12-12 5 5z" />
      <path fill="#d96c9d" d="M37 33l8.01-7.99L50 30l-8 8-5-5z" />
      <path class="cls-7"
        d="M22 18l8-8 20 20-8.01 7.99L29.96 50H10V30l12-12zM22 18l5 5 10 10 4.99 4.99.01.01M10 45l5 5" />
      <path class="cls-7" d="M28 52l-.01-2-.03-7.98V42H18V32H8" />
      <path fill="none" d="M0 0h60v60H0z" />
    </g>
  </g>
</svg>