<svg xmlns="http://www.w3.org/2000/svg" viewBox="0 0 60 60"><defs><style>.cls-1,.cls-7{fill:none;}.cls-2{fill:#ffc840;}.cls-3{fill:#fff3b5;}.cls-4{fill:#ee2a7b;}.cls-5{fill:#f7941d;}.cls-6{fill:#fbb040;}.cls-7{stroke:#231f20;stroke-miterlimit:10;stroke-width:4px;}</style></defs><g id="Layer_2" data-name="Layer 2"><g id="Exports"><rect class="cls-1" width="60" height="60"/><polygon class="cls-2" points="17.01 25.51 29.04 13.5 31.01 13.5 31.04 21.48 31.02 21.48 22 30.5 17.01 25.51"/><polygon class="cls-3" points="31.04 21.48 31.01 13.5 44 13.5 49 18.5 49 31.5 41 31.5 41 21.5 31.04 21.5 31.04 21.48"/><polygon class="cls-4" points="9 33.5 17.01 25.51 22 30.5 32 40.5 37 45.5 34 48.5 29 48.5 24 48.5 9 33.5"/><polygon class="cls-5" points="32 40.5 41 31.5 49 31.5 49 33.5 37 45.5 32 40.5"/><polygon class="cls-6" points="31.04 21.5 41 21.5 41 31.5 32 40.5 22 30.5 31.02 21.48 31.04 21.48 31.04 21.5"/><polygon class="cls-7" points="37 45.5 34 48.5 29 48.5 24 48.5 9 33.5 17.01 25.51 29.04 13.5 31.01 13.5 44 13.5 49 13.5 49 18.5 49 31.5 49 33.5 37 45.5"/><polyline class="cls-7" points="37 45.5 32 40.5 22 30.5 17.01 25.51 17 25.5"/><line class="cls-7" x1="49" y1="18.5" x2="44" y2="13.5"/><polyline class="cls-7" points="31 11.5 31.01 13.5 31.04 21.48 31.04 21.5 41 21.5 41 31.5 49 31.5 51 31.5"/><line class="cls-7" x1="32" y1="40.5" x2="41" y2="31.5"/><line class="cls-7" x1="31.02" y1="21.48" x2="22" y2="30.5"/></g></g></svg>