<svg xmlns="http://www.w3.org/2000/svg" viewBox="0 0 60 60">
  <defs>
    <style>
      .cls-7 {
        fill: none;
        stroke: #231f20;
        stroke-miterlimit: 10;
        stroke-width: 4px
      }
    </style>
  </defs>
  <g id="Layer_2" data-name="Layer 2">
    <g id="Erase">
      <path fill="#ee74a7" d="M9.04 35l8.01-7.99L22.04 32l10 10 5 5-3 3h-10l-15-15z" />
      <path fill="#ffc840" d="M17.05 27.01L30.04 14h1.97l.03 7.98h-.02L22.04 32l-4.99-4.99z" />
      <path fill="#fbb040" d="M22.04 32l9.98-10.02h.02V22H42v10l-9.96 10-10-10z" />
      <path fill="#fff3b5" d="M32.04 21.98L32.01 14H45l5 5v13h-8V22h-9.96v-.02z" />
      <path fill="#f7941d" d="M32.04 42L42 32h8v2L37.04 47l-5-5z" />
      <path fill="#d96c9d" d="M24 50l8.04-8 5 5-3 3H24z" />
      <path class="cls-7"
        d="M37.04 47l-3 3h-10l-15-15 8.01-7.99L30.04 14H50v20L37.04 47zM37.04 47l-5-5-10-10-4.99-4.99-.01-.01M50 19l-5-5" />
      <path class="cls-7" d="M32 12l.01 2 .03 7.98V22H42v10h10" />
      <path fill="none" d="M0 0h60v60H0z" />
    </g>
  </g>
</svg>