<svg xmlns="http://www.w3.org/2000/svg" viewBox="0 0 60 60"><defs><style>.cls-1,.cls-7{fill:none;}.cls-2{fill:#fbb040;}.cls-3{fill:#ffc840;}.cls-4{fill:#ee2a7b;}.cls-5{fill:#f7941d;}.cls-6{fill:#fff3b5;}.cls-7{stroke:#231f20;stroke-miterlimit:10;stroke-width:4px;}</style></defs><g id="Layer_2" data-name="Layer 2"><g id="Exports"><rect class="cls-1" width="60" height="60"/><polygon class="cls-2" points="38 32 28.98 41.02 28.96 41.02 28.96 41 19 41 19 31 28 22 38 32"/><polygon class="cls-3" points="19 31 11 31 11 29 23 17 28 22 19 31"/><polygon class="cls-4" points="23 17 31 9 51 29 42.99 36.99 38 32 28 22 23 17"/><polygon class="cls-5" points="28.99 49 28.96 41.02 28.98 41.02 38 32 42.99 36.99 30.96 49 28.99 49"/><polygon class="cls-6" points="19 41 28.96 41 28.96 41.02 28.99 49 16 49 11 44 11 31 19 31 19 41"/><polygon class="cls-7" points="23 17 31 9 51 29 42.99 36.99 30.96 49 28.99 49 16 49 11 49 11 44 11 31 11 29 23 17"/><polyline class="cls-7" points="23 17 28 22 38 32 42.99 36.99 43 37"/><line class="cls-7" x1="11" y1="44" x2="16" y2="49"/><polyline class="cls-7" points="29 51 28.99 49 28.96 41.02 28.96 41 19 41 19 31 11 31 9 31"/><line class="cls-7" x1="28" y1="22" x2="19" y2="31"/><line class="cls-7" x1="28.98" y1="41.02" x2="38" y2="32"/></g></g></svg>