<svg xmlns="http://www.w3.org/2000/svg" viewBox="0 0 60 60"><defs><style>.cls-1,.cls-7{fill:none;}.cls-2{fill:#fff;}.cls-3{fill:#e6e6e6;}.cls-4{fill:#ccc;}.cls-5{fill:#f2f2f2;}.cls-6,.cls-8{fill:#231f20;}.cls-7,.cls-8{stroke:#231f20;stroke-width:4px;}.cls-7{stroke-miterlimit:1;}</style></defs><g id="Layer_2" data-name="Layer 2"><g id="Exports"><rect class="cls-1" width="60" height="60"/><polygon class="cls-2" points="50.65 30 30.65 10 10.65 30 30.61 50 50.65 30"/><polygon class="cls-3" points="30 50 45 35 25.02 15.02 10.02 29.98 30 50"/><polygon class="cls-4" points="30 50 35 45 15.02 25.02 10.01 30 30 50"/><polygon class="cls-5" points="45.01 34.99 50.01 29.99 30.03 10.01 25.01 14.99 45.01 34.99"/><path class="cls-6" d="M30.61,52.83,7.83,30,30.65,7.17,53.48,30ZM13.48,30,30.62,47.17,47.82,30,30.65,12.83Z"/><line class="cls-7" x1="25.65" y1="25" x2="46.65" y2="14"/><polygon class="cls-8" points="10.65 50 8.65 28 14.65 26 10.65 50"/></g></g></svg>